<svg width="1400" height="1280" viewBox="0 0 1400 1280" fill="none" xmlns="http://www.w3.org/2000/svg">
<g clip-path="url(#clip0)">
<rect width="1400" height="1280" fill="white"/>
<line x1="810.464" y1="120.886" x2="390.464" y2="340.886" stroke="#406CBF" stroke-width="2"/>
<line x1="810.464" y1="119.114" x2="1230.46" y2="339.114" stroke="#406CBF" stroke-width="2"/>
<line x1="169.176" y1="659.433" x2="389.176" y2="339.434" stroke="#406CBF" stroke-width="2"/>
<line x1="609.176" y1="660.567" x2="389.176" y2="340.567" stroke="#406CBF" stroke-width="2"/>
<line x1="1230.82" y1="340.567" x2="1010.82" y2="660.567" stroke="#406CBF" stroke-width="2"/>
<line x1="1010.94" y1="660.351" x2="890.936" y2="980.351" stroke="#406CBF" stroke-width="2"/>
<line x1="610.936" y1="660.351" x2="490.936" y2="980.351" stroke="#406CBF" stroke-width="2"/>
<circle cx="810" cy="120" r="78" fill="#E8F7F8" stroke="#406CBF" stroke-width="4"/>
<path d="M814.812 142H809V103.469L797.344 107.75V102.5L813.906 96.2812H814.812V142Z" fill="#406CBF"/>
<circle cx="1230" cy="340" r="78" fill="#E8F7F8" stroke="#406CBF" stroke-width="4"/>
<path d="M1224.22 336.438H1228.56C1231.29 336.396 1233.44 335.677 1235 334.281C1236.56 332.885 1237.34 331 1237.34 328.625C1237.34 323.292 1234.69 320.625 1229.38 320.625C1226.88 320.625 1224.88 321.344 1223.38 322.781C1221.9 324.198 1221.16 326.083 1221.16 328.438H1215.38C1215.38 324.833 1216.69 321.844 1219.31 319.469C1221.96 317.073 1225.31 315.875 1229.38 315.875C1233.67 315.875 1237.03 317.01 1239.47 319.281C1241.91 321.552 1243.12 324.708 1243.12 328.75C1243.12 330.729 1242.48 332.646 1241.19 334.5C1239.92 336.354 1238.18 337.74 1235.97 338.656C1238.47 339.448 1240.4 340.76 1241.75 342.594C1243.12 344.427 1243.81 346.667 1243.81 349.312C1243.81 353.396 1242.48 356.635 1239.81 359.031C1237.15 361.427 1233.68 362.625 1229.41 362.625C1225.14 362.625 1221.66 361.469 1218.97 359.156C1216.3 356.844 1214.97 353.792 1214.97 350H1220.78C1220.78 352.396 1221.56 354.312 1223.12 355.75C1224.69 357.188 1226.78 357.906 1229.41 357.906C1232.2 357.906 1234.33 357.177 1235.81 355.719C1237.29 354.26 1238.03 352.167 1238.03 349.438C1238.03 346.792 1237.22 344.76 1235.59 343.344C1233.97 341.927 1231.62 341.198 1228.56 341.156H1224.22V336.438Z" fill="#406CBF"/>
<circle cx="390" cy="340" r="78" fill="#E8F7F8" stroke="#406CBF" stroke-width="4"/>
<path d="M405.625 362H375.812V357.844L391.562 340.344C393.896 337.698 395.5 335.552 396.375 333.906C397.271 332.24 397.719 330.521 397.719 328.75C397.719 326.375 397 324.427 395.562 322.906C394.125 321.385 392.208 320.625 389.812 320.625C386.938 320.625 384.698 321.448 383.094 323.094C381.51 324.719 380.719 326.99 380.719 329.906H374.938C374.938 325.719 376.281 322.333 378.969 319.75C381.677 317.167 385.292 315.875 389.812 315.875C394.042 315.875 397.385 316.99 399.844 319.219C402.302 321.427 403.531 324.375 403.531 328.062C403.531 332.542 400.677 337.875 394.969 344.062L382.781 357.281H405.625V362Z" fill="#406CBF"/>
<circle cx="170" cy="660" r="78" fill="#E8F7F8" stroke="#406CBF" stroke-width="4"/>
<path d="M180.219 666.719H186.531V671.438H180.219V682H174.406V671.438H153.688V668.031L174.062 636.5H180.219V666.719ZM160.25 666.719H174.406V644.406L173.719 645.656L160.25 666.719Z" fill="#406CBF"/>
<circle cx="610" cy="660" r="78" fill="#E8F7F8" stroke="#406CBF" stroke-width="4"/>
<path d="M598.469 659.188L600.781 636.5H624.094V641.844H605.688L604.312 654.25C606.542 652.938 609.073 652.281 611.906 652.281C616.052 652.281 619.344 653.656 621.781 656.406C624.219 659.135 625.438 662.833 625.438 667.5C625.438 672.188 624.167 675.885 621.625 678.594C619.104 681.281 615.573 682.625 611.031 682.625C607.01 682.625 603.729 681.51 601.188 679.281C598.646 677.052 597.198 673.969 596.844 670.031H602.312C602.667 672.635 603.594 674.604 605.094 675.938C606.594 677.25 608.573 677.906 611.031 677.906C613.719 677.906 615.823 676.99 617.344 675.156C618.885 673.323 619.656 670.792 619.656 667.562C619.656 664.521 618.823 662.083 617.156 660.25C615.51 658.396 613.312 657.469 610.562 657.469C608.042 657.469 606.062 658.021 604.625 659.125L603.094 660.375L598.469 659.188Z" fill="#406CBF"/>
<circle cx="1010" cy="660" r="78" fill="#E8F7F8" stroke="#406CBF" stroke-width="4"/>
<path d="M1018.5 636.469V641.375H1017.44C1012.94 641.458 1009.35 642.792 1006.69 645.375C1004.02 647.958 1002.48 651.594 1002.06 656.281C1004.46 653.531 1007.73 652.156 1011.88 652.156C1015.83 652.156 1018.99 653.552 1021.34 656.344C1023.72 659.135 1024.91 662.74 1024.91 667.156C1024.91 671.844 1023.62 675.594 1021.06 678.406C1018.52 681.219 1015.1 682.625 1010.81 682.625C1006.46 682.625 1002.93 680.958 1000.22 677.625C997.51 674.271 996.156 669.958 996.156 664.688V662.469C996.156 654.094 997.938 647.698 1001.5 643.281C1005.08 638.844 1010.41 636.573 1017.47 636.469H1018.5ZM1010.91 656.969C1008.93 656.969 1007.1 657.562 1005.44 658.75C1003.77 659.938 1002.61 661.427 1001.97 663.219V665.344C1001.97 669.094 1002.81 672.115 1004.5 674.406C1006.19 676.698 1008.29 677.844 1010.81 677.844C1013.42 677.844 1015.46 676.885 1016.94 674.969C1018.44 673.052 1019.19 670.542 1019.19 667.438C1019.19 664.312 1018.43 661.792 1016.91 659.875C1015.41 657.938 1013.41 656.969 1010.91 656.969Z" fill="#406CBF"/>
<circle cx="890" cy="980" r="78" fill="#E8F7F8" stroke="#406CBF" stroke-width="4"/>
<path d="M903.406 968.375C903.406 970.646 902.802 972.667 901.594 974.438C900.406 976.208 898.792 977.594 896.75 978.594C899.125 979.615 901 981.104 902.375 983.062C903.771 985.021 904.469 987.24 904.469 989.719C904.469 993.656 903.135 996.792 900.469 999.125C897.823 1001.46 894.333 1002.62 890 1002.62C885.625 1002.62 882.115 1001.46 879.469 999.125C876.844 996.771 875.531 993.635 875.531 989.719C875.531 987.26 876.198 985.042 877.531 983.062C878.885 981.083 880.75 979.583 883.125 978.562C881.104 977.562 879.51 976.177 878.344 974.406C877.177 972.635 876.594 970.625 876.594 968.375C876.594 964.542 877.823 961.5 880.281 959.25C882.74 957 885.979 955.875 890 955.875C894 955.875 897.229 957 899.688 959.25C902.167 961.5 903.406 964.542 903.406 968.375ZM898.688 989.594C898.688 987.052 897.875 984.979 896.25 983.375C894.646 981.771 892.542 980.969 889.938 980.969C887.333 980.969 885.24 981.76 883.656 983.344C882.094 984.927 881.312 987.01 881.312 989.594C881.312 992.177 882.073 994.208 883.594 995.688C885.135 997.167 887.271 997.906 890 997.906C892.708 997.906 894.833 997.167 896.375 995.688C897.917 994.188 898.688 992.156 898.688 989.594ZM890 960.625C887.729 960.625 885.885 961.333 884.469 962.75C883.073 964.146 882.375 966.052 882.375 968.469C882.375 970.781 883.062 972.656 884.438 974.094C885.833 975.51 887.688 976.219 890 976.219C892.312 976.219 894.156 975.51 895.531 974.094C896.927 972.656 897.625 970.781 897.625 968.469C897.625 966.156 896.906 964.271 895.469 962.812C894.031 961.354 892.208 960.625 890 960.625Z" fill="#406CBF"/>
<circle cx="470" cy="980" r="78" fill="#E8F7F8" stroke="#406CBF" stroke-width="4"/>
<path d="M485.188 959.75L466.344 1002H460.281L479.062 961.25H454.438V956.5H485.188V959.75Z" fill="#406CBF"/>
<path d="M420.1 1222.52V1165.88H433.86V1170.87H426.564V1217.53H433.86V1222.52H420.1ZM457.796 1211V1201.85H437.508V1196.92L458.948 1165.88H464.388V1196.28H470.98V1201.85H464.388V1211H457.796ZM457.796 1196.28V1176.25L444.1 1196.28H457.796ZM479.915 1218.87L477.099 1216.7C478.08 1215.63 478.806 1214.65 479.275 1213.75C479.744 1212.86 480.043 1211.94 480.171 1211H476.651V1203.38H484.267V1208.57C484.267 1210.53 483.947 1212.32 483.307 1213.94C482.667 1215.61 481.536 1217.25 479.915 1218.87ZM510.315 1211V1206.07L525.355 1189.94C527.446 1187.68 528.939 1185.63 529.835 1183.8C530.774 1181.97 531.243 1180.11 531.243 1178.23C531.243 1173.37 528.384 1170.94 522.667 1170.94C518.315 1170.94 514.411 1172.58 510.955 1175.86L508.587 1170.81C510.294 1169.14 512.47 1167.82 515.115 1166.84C517.76 1165.82 520.512 1165.3 523.371 1165.3C528.022 1165.3 531.584 1166.37 534.059 1168.5C536.576 1170.64 537.835 1173.69 537.835 1177.66C537.835 1180.34 537.174 1182.97 535.851 1185.53C534.571 1188.09 532.544 1190.82 529.771 1193.72L518.635 1205.43H539.627V1211H510.315ZM550.29 1218.87L547.474 1216.7C548.455 1215.63 549.181 1214.65 549.65 1213.75C550.119 1212.86 550.418 1211.94 550.546 1211H547.026V1203.38H554.642V1208.57C554.642 1210.53 554.322 1212.32 553.682 1213.94C553.042 1215.61 551.911 1217.25 550.29 1218.87ZM581.65 1211L602.322 1171.45H579.218V1165.88H609.746V1170.81L588.946 1211H581.65ZM620.665 1218.87L617.849 1216.7C618.83 1215.63 619.556 1214.65 620.025 1213.75C620.494 1212.86 620.793 1211.94 620.921 1211H617.401V1203.38H625.017V1208.57C625.017 1210.53 624.697 1212.32 624.057 1213.94C623.417 1215.61 622.286 1217.25 620.665 1218.87ZM665.529 1211.58C662.628 1211.58 659.812 1211.13 657.081 1210.23C654.393 1209.29 652.153 1207.99 650.361 1206.33L652.601 1201.21C656.526 1204.37 660.793 1205.94 665.401 1205.94C668.345 1205.94 670.649 1205.15 672.313 1203.58C673.977 1201.95 674.809 1199.84 674.809 1197.24C674.809 1194.55 674.02 1192.35 672.441 1190.65C670.862 1188.94 668.665 1188.09 665.849 1188.09C661.881 1188.09 658.702 1189.73 656.313 1193.02H651.705V1165.88H678.585V1171.45H658.169V1185.72C660.558 1183.63 663.588 1182.58 667.257 1182.58C670.116 1182.58 672.59 1183.18 674.681 1184.38C676.772 1185.57 678.393 1187.26 679.545 1189.43C680.697 1191.57 681.273 1194.06 681.273 1196.92C681.273 1199.82 680.633 1202.38 679.353 1204.6C678.073 1206.78 676.26 1208.48 673.913 1209.72C671.566 1210.96 668.772 1211.58 665.529 1211.58ZM691.04 1218.87L688.224 1216.7C689.205 1215.63 689.931 1214.65 690.4 1213.75C690.869 1212.86 691.168 1211.94 691.296 1211H687.776V1203.38H695.392V1208.57C695.392 1210.53 695.072 1212.32 694.432 1213.94C693.792 1215.61 692.661 1217.25 691.04 1218.87ZM723.488 1211V1205.43H733.728V1173.56L725.728 1178.55L723.04 1173.62L735.648 1165.88H740.32V1205.43H749.92V1211H723.488ZM761.415 1218.87L758.599 1216.7C759.58 1215.63 760.306 1214.65 760.775 1213.75C761.244 1212.86 761.543 1211.94 761.671 1211H758.151V1203.38H765.767V1208.57C765.767 1210.53 765.447 1212.32 764.807 1213.94C764.167 1215.61 763.036 1217.25 761.415 1218.87ZM805.575 1211.58C800.412 1211.58 796.38 1210.47 793.479 1208.25C790.62 1206.03 789.191 1202.94 789.191 1198.97C789.191 1196.19 789.916 1193.85 791.367 1191.93C792.86 1189.97 794.802 1188.62 797.191 1187.9C795.058 1187 793.372 1185.63 792.135 1183.8C790.898 1181.92 790.279 1179.77 790.279 1177.34C790.279 1173.58 791.666 1170.64 794.439 1168.5C797.212 1166.37 800.924 1165.3 805.575 1165.3C810.268 1165.3 814.002 1166.37 816.775 1168.5C819.548 1170.64 820.935 1173.58 820.935 1177.34C820.935 1179.77 820.295 1181.92 819.015 1183.8C817.778 1185.68 816.092 1187.04 813.959 1187.9C816.391 1188.62 818.332 1189.97 819.783 1191.93C821.234 1193.85 821.959 1196.19 821.959 1198.97C821.959 1202.94 820.508 1206.03 817.607 1208.25C814.748 1210.47 810.738 1211.58 805.575 1211.58ZM805.575 1185.53C808.434 1185.53 810.652 1184.87 812.231 1183.54C813.852 1182.18 814.663 1180.32 814.663 1177.98C814.663 1175.67 813.852 1173.86 812.231 1172.54C810.652 1171.21 808.434 1170.55 805.575 1170.55C802.716 1170.55 800.498 1171.21 798.919 1172.54C797.34 1173.86 796.551 1175.67 796.551 1177.98C796.551 1180.32 797.34 1182.18 798.919 1183.54C800.498 1184.87 802.716 1185.53 805.575 1185.53ZM805.575 1206.33C812.359 1206.33 815.751 1203.73 815.751 1198.52C815.751 1193.36 812.359 1190.78 805.575 1190.78C802.247 1190.78 799.708 1191.42 797.959 1192.7C796.252 1193.98 795.399 1195.92 795.399 1198.52C795.399 1203.73 798.791 1206.33 805.575 1206.33ZM831.79 1218.87L828.974 1216.7C829.955 1215.63 830.681 1214.65 831.15 1213.75C831.619 1212.86 831.918 1211.94 832.046 1211H828.526V1203.38H836.142V1208.57C836.142 1210.53 835.822 1212.32 835.182 1213.94C834.542 1215.61 833.411 1217.25 831.79 1218.87ZM877.55 1211.58C872.089 1211.58 867.865 1209.63 864.878 1205.75C861.934 1201.87 860.462 1196.43 860.462 1189.43C860.462 1181.71 862.126 1175.76 865.454 1171.58C868.782 1167.39 873.39 1165.3 879.278 1165.3C881.582 1165.3 883.907 1165.77 886.254 1166.71C888.601 1167.61 890.563 1168.89 892.142 1170.55L889.838 1175.54C888.302 1174.01 886.595 1172.86 884.718 1172.09C882.883 1171.32 881.027 1170.94 879.15 1170.94C875.182 1170.94 872.131 1172.39 869.998 1175.29C867.907 1178.15 866.862 1182.43 866.862 1188.15V1190.71C867.715 1188.11 869.187 1186.08 871.278 1184.63C873.411 1183.14 875.865 1182.39 878.638 1182.39C881.283 1182.39 883.609 1183.01 885.614 1184.25C887.662 1185.49 889.262 1187.19 890.414 1189.37C891.566 1191.5 892.142 1193.95 892.142 1196.73C892.142 1199.63 891.523 1202.21 890.286 1204.47C889.049 1206.69 887.321 1208.44 885.102 1209.72C882.926 1210.96 880.409 1211.58 877.55 1211.58ZM877.166 1206.2C879.769 1206.2 881.881 1205.35 883.502 1203.64C885.123 1201.93 885.934 1199.71 885.934 1196.98C885.934 1194.25 885.123 1192.03 883.502 1190.33C881.881 1188.62 879.769 1187.77 877.166 1187.77C874.563 1187.77 872.451 1188.62 870.83 1190.33C869.209 1192.03 868.398 1194.25 868.398 1196.98C868.398 1199.71 869.209 1201.93 870.83 1203.64C872.451 1205.35 874.563 1206.2 877.166 1206.2ZM902.165 1218.87L899.349 1216.7C900.33 1215.63 901.056 1214.65 901.525 1213.75C901.994 1212.86 902.293 1211.94 902.421 1211H898.901V1203.38H906.517V1208.57C906.517 1210.53 906.197 1212.32 905.557 1213.94C904.917 1215.61 903.786 1217.25 902.165 1218.87ZM945.621 1211.58C942.592 1211.58 939.712 1211.13 936.981 1210.23C934.25 1209.29 931.968 1207.99 930.133 1206.33L932.437 1201.21C934.442 1202.83 936.512 1204.02 938.645 1204.79C940.778 1205.56 943.04 1205.94 945.429 1205.94C948.501 1205.94 950.826 1205.28 952.405 1203.96C954.026 1202.64 954.837 1200.74 954.837 1198.26C954.837 1195.79 954.026 1193.95 952.405 1192.76C950.826 1191.57 948.522 1190.97 945.493 1190.97H938.517V1185.4H944.853C947.541 1185.4 949.653 1184.72 951.189 1183.35C952.768 1181.99 953.557 1180.11 953.557 1177.72C953.557 1175.54 952.832 1173.88 951.381 1172.73C949.93 1171.53 947.861 1170.94 945.173 1170.94C940.608 1170.94 936.618 1172.58 933.205 1175.86L930.901 1170.81C932.65 1169.06 934.826 1167.71 937.429 1166.78C940.074 1165.79 942.826 1165.3 945.685 1165.3C950.208 1165.3 953.728 1166.35 956.245 1168.44C958.762 1170.49 960.021 1173.35 960.021 1177.02C960.021 1179.49 959.381 1181.67 958.101 1183.54C956.864 1185.42 955.136 1186.79 952.917 1187.64C955.605 1188.32 957.674 1189.65 959.125 1191.61C960.576 1193.53 961.301 1195.9 961.301 1198.71C961.301 1202.68 959.893 1205.82 957.077 1208.12C954.304 1210.42 950.485 1211.58 945.621 1211.58ZM966.14 1222.52V1217.53H973.436V1170.87H966.14V1165.88H979.9V1222.52H966.14Z" fill="#333333"/>
</g>
<defs>
<clipPath id="clip0">
<rect width="1400" height="1280" fill="white"/>
</clipPath>
</defs>
</svg>
